<mxfile host="app.diagrams.net" modified="2023-02-16T10:39:48.578Z" agent="5.0 (X11; Linux x86_64) AppleWebKit/537.36 (KHTML, like Gecko) Chrome/110.0.0.0 Safari/537.36" etag="MOuiISLw49M_T_HDI1pr" version="20.8.20" type="github">
  <diagram id="C5RBs43oDa-KdzZeNtuy" name="Page-1">
    <mxGraphModel dx="1091" dy="790" grid="1" gridSize="10" guides="1" tooltips="1" connect="1" arrows="1" fold="1" page="1" pageScale="1" pageWidth="827" pageHeight="1169" math="0" shadow="0">
      <root>
        <mxCell id="WIyWlLk6GJQsqaUBKTNV-0" />
        <mxCell id="WIyWlLk6GJQsqaUBKTNV-1" parent="WIyWlLk6GJQsqaUBKTNV-0" />
        <mxCell id="EOmv4hRw70twa0YLxiHF-4" value="Pre-runtime&lt;br&gt;" style="swimlane;whiteSpace=wrap;html=1;" vertex="1" parent="WIyWlLk6GJQsqaUBKTNV-1">
          <mxGeometry x="420" y="40" width="350" height="350" as="geometry" />
        </mxCell>
        <mxCell id="EOmv4hRw70twa0YLxiHF-8" value="" style="edgeStyle=orthogonalEdgeStyle;rounded=0;orthogonalLoop=1;jettySize=auto;html=1;" edge="1" parent="EOmv4hRw70twa0YLxiHF-4" source="EOmv4hRw70twa0YLxiHF-5" target="EOmv4hRw70twa0YLxiHF-7">
          <mxGeometry relative="1" as="geometry" />
        </mxCell>
        <mxCell id="EOmv4hRw70twa0YLxiHF-5" value="schema is parsed and generates `QGraphQLObject`&#39;s" style="rounded=1;whiteSpace=wrap;html=1;" vertex="1" parent="EOmv4hRw70twa0YLxiHF-4">
          <mxGeometry x="150" y="40" width="180" height="110" as="geometry" />
        </mxCell>
        <mxCell id="EOmv4hRw70twa0YLxiHF-7" value="queries.graphql is parsed and generates query handlers correspondingly" style="whiteSpace=wrap;html=1;rounded=1;" vertex="1" parent="EOmv4hRw70twa0YLxiHF-4">
          <mxGeometry x="180" y="200" width="120" height="60" as="geometry" />
        </mxCell>
      </root>
    </mxGraphModel>
  </diagram>
</mxfile>
